<?xml version="1.0" encoding="utf-8" standalone="no"?>
<!DOCTYPE svg PUBLIC "-//W3C//DTD SVG 1.1//EN"
  "http://www.w3.org/Graphics/SVG/1.1/DTD/svg11.dtd">
<svg xmlns:xlink="http://www.w3.org/1999/xlink" width="460.8pt" height="345.6pt" viewBox="0 0 460.8 345.6" xmlns="http://www.w3.org/2000/svg" version="1.1">
 <metadata>
  <rdf:RDF xmlns:dc="http://purl.org/dc/elements/1.1/" xmlns:cc="http://creativecommons.org/ns#" xmlns:rdf="http://www.w3.org/1999/02/22-rdf-syntax-ns#">
   <cc:Work>
    <dc:type rdf:resource="http://purl.org/dc/dcmitype/StillImage"/>
    <dc:date>2024-12-01T21:39:52.413151</dc:date>
    <dc:format>image/svg+xml</dc:format>
    <dc:creator>
     <cc:Agent>
      <dc:title>Matplotlib v3.7.2, https://matplotlib.org/</dc:title>
     </cc:Agent>
    </dc:creator>
   </cc:Work>
  </rdf:RDF>
 </metadata>
 <defs>
  <style type="text/css">*{stroke-linejoin: round; stroke-linecap: butt}</style>
 </defs>
 <g id="figure_1">
  <g id="patch_1">
   <path d="M 0 345.6 
L 460.8 345.6 
L 460.8 0 
L 0 0 
z
" style="fill: #ffffff"/>
  </g>
  <g id="axes_1">
   <g id="line2d_1">
    <path d="M 255.098182 155.589818 
L 258.284606 153.605818 
L 261.47103 151.621818 
L 264.657455 149.637818 
L 267.843879 147.653818 
L 271.030303 145.669818 
L 274.216727 143.685818 
L 277.403152 141.701818 
L 280.589576 139.717818 
L 283.776 137.733818 
L 286.962424 135.749818 
L 290.148848 133.765818 
L 293.335273 131.781818 
L 296.521697 129.797818 
L 299.708121 127.813818 
L 302.894545 125.829818 
L 306.08097 123.845818 
L 309.267394 121.861818 
L 312.453818 119.877818 
L 315.640242 117.893818 
L 318.826667 115.909818 
L 322.013091 113.925818 
L 325.199515 111.941818 
L 328.385939 109.957818 
L 331.572364 107.973818 
L 334.758788 105.989818 
L 337.945212 104.005818 
L 341.131636 102.021818 
L 344.318061 100.037818 
L 347.504485 98.053818 
L 350.690909 96.069818 
L 353.877333 94.085818 
L 357.063758 92.101818 
L 360.250182 90.117818 
L 363.436606 88.133818 
L 366.62303 86.149818 
L 369.809455 84.165818 
L 372.995879 82.181818 
L 376.182303 80.197818 
L 379.368727 78.213818 
L 382.555152 76.229818 
L 385.741576 74.245818 
L 388.928 72.261818 
L 392.114424 70.277818 
L 395.300848 68.293818 
L 398.487273 66.309818 
" clip-path="url(#p4c257223ff)" style="fill: none; stroke: #1f77b4; stroke-width: 2; stroke-linecap: square"/>
   </g>
   <g id="line2d_2">
    <path d="M 73.832727 282.746182 
L 77.019152 280.762182 
L 80.205576 278.778182 
L 83.392 276.794182 
L 86.578424 274.810182 
L 89.764848 272.826182 
L 92.951273 270.842182 
L 96.137697 268.858182 
L 99.324121 266.874182 
L 102.510545 264.890182 
L 105.69697 262.906182 
L 108.883394 260.922182 
L 112.069818 258.938182 
L 115.256242 256.954182 
L 118.442667 254.970182 
L 121.629091 252.986182 
L 124.815515 251.002182 
L 128.001939 249.018182 
L 131.188364 247.034182 
L 134.374788 245.050182 
L 137.561212 243.066182 
L 140.747636 241.082182 
L 143.934061 239.098182 
L 147.120485 237.114182 
L 150.306909 235.130182 
L 153.493333 233.146182 
L 156.679758 231.162182 
L 159.866182 229.178182 
L 163.052606 227.194182 
L 166.23903 225.210182 
L 169.425455 223.226182 
L 172.611879 221.242182 
L 175.798303 219.258182 
L 178.984727 217.274182 
L 182.171152 215.290182 
L 185.357576 213.306182 
L 188.544 211.322182 
L 191.730424 209.338182 
L 194.916848 207.354182 
L 198.103273 205.370182 
L 201.289697 203.386182 
L 204.476121 201.402182 
L 207.662545 199.418182 
L 210.84897 197.434182 
L 214.035394 195.450182 
L 217.221818 193.466182 
" clip-path="url(#p4c257223ff)" style="fill: none; stroke: #1f77b4; stroke-width: 2; stroke-linecap: square"/>
   </g>
   <g id="line2d_3">
    <path d="M 73.832727 66.309818 
L 76.866882 68.332588 
L 79.901037 70.355358 
L 82.935191 72.378127 
L 85.969346 74.400897 
L 89.0035 76.423667 
L 92.037655 78.446437 
L 95.07181 80.469206 
L 98.105964 82.491976 
L 101.140119 84.514746 
L 104.174274 86.537516 
L 107.208428 88.560285 
L 110.242583 90.583055 
L 113.276737 92.605825 
L 116.310892 94.628595 
L 119.345047 96.651364 
L 122.379201 98.674134 
L 125.413356 100.696904 
L 128.447511 102.719674 
L 131.481665 104.742444 
L 134.51582 106.765213 
L 137.549975 108.787983 
L 140.584129 110.810753 
L 143.618284 112.833523 
L 146.652438 114.856292 
L 149.686593 116.879062 
L 152.720748 118.901832 
L 155.754902 120.924602 
L 158.789057 122.947371 
L 161.823212 124.970141 
L 164.857366 126.992911 
L 167.891521 129.015681 
L 170.925675 131.03845 
L 173.95983 133.06122 
L 176.993985 135.08399 
L 180.028139 137.10676 
L 183.062294 139.129529 
L 186.096449 141.152299 
L 189.130603 143.175069 
L 192.164758 145.197839 
L 195.198912 147.220608 
L 198.233067 149.243378 
L 201.267222 151.266148 
L 204.301376 153.288918 
L 207.335531 155.311687 
L 210.369686 157.334457 
L 213.40384 159.357227 
L 216.437995 161.379997 
L 219.47215 163.402766 
L 222.506304 165.425536 
L 225.540459 167.448306 
L 228.574613 169.471076 
L 231.608768 171.493845 
L 234.642923 173.516615 
L 237.677077 175.539385 
L 240.711232 177.562155 
L 243.745387 179.584924 
L 246.779541 181.607694 
L 249.813696 183.630464 
L 252.84785 185.653234 
L 255.882005 187.676003 
L 258.91616 189.698773 
L 261.950314 191.721543 
L 264.984469 193.744313 
L 268.018624 195.767082 
L 271.052778 197.789852 
L 274.086933 199.812622 
L 277.121088 201.835392 
L 280.155242 203.858161 
L 283.189397 205.880931 
L 286.223551 207.903701 
L 289.257706 209.926471 
L 292.291861 211.94924 
L 295.326015 213.97201 
L 298.36017 215.99478 
L 301.394325 218.01755 
L 304.428479 220.040319 
L 307.462634 222.063089 
L 310.496788 224.085859 
L 313.530943 226.108629 
L 316.565098 228.131398 
L 319.599252 230.154168 
L 322.633407 232.176938 
L 325.667562 234.199708 
L 328.701716 236.222477 
L 331.735871 238.245247 
L 334.770025 240.268017 
L 337.80418 242.290787 
L 340.838335 244.313556 
L 343.872489 246.336326 
L 346.906644 248.359096 
L 349.940799 250.381866 
L 352.974953 252.404636 
L 356.009108 254.427405 
L 359.043263 256.450175 
L 362.077417 258.472945 
L 365.111572 260.495715 
L 368.145726 262.518484 
L 371.179881 264.541254 
L 374.214036 266.564024 
L 377.24819 268.586794 
L 380.282345 270.609563 
L 383.3165 272.632333 
L 386.350654 274.655103 
L 389.384809 276.677873 
L 392.418963 278.700642 
L 395.453118 280.723412 
L 398.487273 282.746182 
" clip-path="url(#p4c257223ff)" style="fill: none; stroke: #1f77b4; stroke-width: 2; stroke-linecap: square"/>
   </g>
   <g id="PathCollection_1">
    <defs>
     <path id="m179c4ee67e" d="M 0 2.236068 
C 0.593012 2.236068 1.161816 2.000462 1.581139 1.581139 
C 2.000462 1.161816 2.236068 0.593012 2.236068 0 
C 2.236068 -0.593012 2.000462 -1.161816 1.581139 -1.581139 
C 1.161816 -2.000462 0.593012 -2.236068 0 -2.236068 
C -0.593012 -2.236068 -1.161816 -2.000462 -1.581139 -1.581139 
C -2.000462 -1.161816 -2.236068 -0.593012 -2.236068 0 
C -2.236068 0.593012 -2.000462 1.161816 -1.581139 1.581139 
C -1.161816 2.000462 -0.593012 2.236068 0 2.236068 
z
" style="stroke: #7f7f7f"/>
    </defs>
    <g clip-path="url(#p4c257223ff)">
     <use xlink:href="#m179c4ee67e" x="73.832727" y="66.309818" style="fill: #7f7f7f; stroke: #7f7f7f"/>
     <use xlink:href="#m179c4ee67e" x="73.832727" y="282.746182" style="fill: #7f7f7f; stroke: #7f7f7f"/>
     <use xlink:href="#m179c4ee67e" x="398.487273" y="282.746182" style="fill: #7f7f7f; stroke: #7f7f7f"/>
     <use xlink:href="#m179c4ee67e" x="398.487273" y="66.309818" style="fill: #7f7f7f; stroke: #7f7f7f"/>
    </g>
   </g>
  </g>
 </g>
 <defs>
  <clipPath id="p4c257223ff">
   <rect x="57.6" y="55.488" width="357.12" height="238.08"/>
  </clipPath>
 </defs>
</svg>
